<svg xmlns="http://www.w3.org/2000/svg" width="223" height="30" viewBox="0 0 223 30">
	<rect width="223" height="30" fill="#800" rx="8"/>
	<path fill="transparent" stroke="#fff" stroke-linecap="round" stroke-linejoin="round" stroke-width="1.5" d="M68.8 10.7s-1.8-1.9-4.3-.5 0 3.4 0 3.4 2.2.7 3.5.8c1.2.1 1 2.1 1 2.1s-.4 1.4-2 1.6c-1.4.3-2.8.1-3.7-.8m8.7-5.1v4.2s0 2 2.4 2 2.4-1.8 2.4-1.8V12m3.4 0v9.3M89 12v9.3m17.3-9v6c-.4-4.2.7-6.3 3.3-6.2m3.5-1.3v6.5c.3 1 .9 1.2 1.8.9m-3.3-5.9h3.3m7.1-.2v6c-.2-3.8.7-5.8 2.6-5.9 1.6 0 2.3 1.3 2.3 4v1c0 1.4-.2 1.3 0-2.7 0-1.3.9-2 2.4-2.2 1.1-.2 1.9.3 2.3 1.5v4.6m2.7-3.4h5.7c0-1.8-.8-2.8-2.8-2.7-2 0-3 1.2-3 3.5 0 1.4 1.1 2.3 3.4 2.6q1 .2 2-.6m16-5.6v6-3.7c.1-1 1-1.9 2.8-2.4.9-.2 1.5.3 2 1.6.2.4.2 2 0 4.7m7.6-8.6v8.6c0-2.2.5-3.5 1.6-4.1 0 0 .7-.5 3.6-3.5 1.5-1.5.9-.8-2.5 2.7l3.3 4.8m11.4-3.6h2.5M192 18v-6.5c0-1.6 1-2.5 2.8-2m-4.5 2.9h3.5m3.2-2.9v.5m-.1 2v6.2"/>
	<circle cx="83.2" cy="15.2" r="3.7" fill="#fff"/>
	<circle cx="83.2" cy="15.2" r="2.3" fill="#800"/>
	<circle cx="92" cy="15.2" r="3.7" fill="#fff"/>
	<circle cx="92" cy="15.2" r="2.3" fill="#800"/>
	<circle cx="100.2" cy="15.2" r="3.7" fill="#fff"/>
	<circle cx="100.2" cy="15.2" r="2.3" fill="#800"/>
	<circle cx="149.4" cy="15.2" r="4" fill="#fff"/>
	<circle cx="149.4" cy="15.2" r="2.5" fill="#800"/>
	<circle cx="179.7" cy="15.2" r="4" fill="#fff"/>
	<circle cx="179.7" cy="15.2" r="2.5" fill="#800"/>
	<path fill="#fff" d="M41.4 7H43c3.1 0 5.6 2.5 5.6 5.6v.3c0 3.1-2.5 5.7-5.6 5.7h-1.6v1.6c0 1.5-1.1 2.6-2.6 2.6H26.6a2.6 2.6 0 01-2.6-2.6V8.3c0-.7.6-1.3 1.3-1.3h16.1zm0 3v5.6H43a2.8 2.8 0 100-5.6h-1.5z"/>
	<path fill="none" stroke="#800" stroke-linecap="round" stroke-width="5.5" d="M29.8 13.2c-.2.1 1.7 2.3 2.6 3a11 11 0 002.6-3"/>
</svg>
