<svg xmlns="http://www.w3.org/2000/svg" viewBox="0 0 640 640">
  <!--https://ko-fi.com/img/cuplogo.svg-->
  <circle cx="320" cy="320" r="320" fill="#800"/>
  <path fill="#fff" d="M483 353c-19 3-34 0-34 0V239h36s40 12 40 54c0 38-21 53-42 60m99-81c-16-81-99-92-99-92H114c-12 0-13 16-13 16s-2 148 0 238c3 49 52 54 52 54h241c49-9 54-52 53-76 88 5 150-57 135-140"/>
  <path fill="#ff5f5f" d="M271 424c4 2 7 0 7 0s55-51 80-80c23-27 24-71-14-87s-70 19-70 19c-28-30-69-28-88-8s-12 55 2 75c13 18 73 70 81 79l2 2z"/>
</svg>
