<svg xmlns="http://www.w3.org/2000/svg" width="100" height="100">
  <path fill="#FF4500" d="M99 49a11 11 0 00-18-7.8A56 56 0 0052.5 33l6-19L75 17.6v.2a8.9 8.9 0 008.8 8.8c5 0 9-4 9-8.8a8.9 8.9 0 00-17.2-3.2l-17.7-4.1a1.5 1.5 0 00-1.8 1l-6.7 21.2c-11.6.2-22.1 3.3-29.8 8.3A10.8 10.8 0 001.4 49c0 4 2.1 7.4 5.3 9.3a19.3 19.3 0 00-.3 3.5c0 16 19.6 29 43.8 29s43.7-13 43.7-29a20 20 0 00-.3-3.3 10.8 10.8 0 005.8-9.5zm-70.3 7.4a6.5 6.5 0 0112.9 0 6.5 6.5 0 01-13 0zm37 19c-3.3 3.3-8.4 4.9-15.7 4.9-7.3 0-12.4-1.6-15.7-4.8a1.5 1.5 0 010-2.2c.6-.6 1.6-.6 2.2 0 2.6 2.7 7 4 13.5 4s10.9-1.3 13.5-4a1.5 1.5 0 012.2 2.2zm-1-13a6.5 6.5 0 01-6.5-6.4 6.5 6.5 0 0113 0c0 3.6-3 6.5-6.5 6.5z"/>
</svg>