<svg xmlns="http://www.w3.org/2000/svg" width="100" height="100">
	<path fill="#800" d="M52.7 18.8a1.6 1.6 0 012-1.2l13.2 2.9a5.2 5.2 0 11-.6 3l-12-2.7-4 17.5A37.8 37.8 0 0173 45.5a7.7 7.7 0 0111.8.9 7.5 7.5 0 01.4.7 8 8 0 01-3.6 10.7 18.7 18.7 0 01-8 17.5A39.6 39.6 0 0150 82.5a39.6 39.6 0 01-23.6-7.2 18.7 18.7 0 01-8-17.5 7.5 7.5 0 01-.8-.4 8 8 0 01-2.4-11 8.3 8.3 0 01.9-1 7.7 7.7 0 0110.9 0 37.8 37.8 0 0121.2-7.1z
	M57 56.2a5.3 5.3 0 105.3-5.3 5.3 5.3 0 00-5.3 5.3z
	m6.3 14.6a1.2 1.2 0 00-1.3-2 20.7 20.7 0 01-24.2 0 1.2 1.2 0 00-1.3 2 22.7 22.7 0 0026.8 0z
	m-31-14.6a5.3 5.3 0 105.2-5.3 5.3 5.3 0 00-5.3 5.3z" />
</svg>